<?xml version="1.0" encoding="UTF-8"?>
<!DOCTYPE svg
PUBLIC "-//W3C//DTD SVG 1.1//EN"
       "http://www.w3.org/Graphics/SVG/1.1/DTD/svg11.dtd">
<svg viewBox="97 -4 957 486" width="860px" height="490px" xmlns="http://www.w3.org/2000/svg" version="1.1">
   <line x1="563" y1="461" x2="573" y2="461" style="stroke:#b0b;stroke-width:1;"/>
   <line x1="568" y1="173" x2="558" y2="173" style="stroke:#b0b;stroke-width:1;"/>
   <line x1="573" y1="461" x2="568" y2="173" style="stroke:#b0b;stroke-width:1;"/>
   <line x1="570.5" y1="461" x2="566.96446609407" y2="464.53553390593" style="stroke:#b0b;stroke-width:2;"/>
   <line x1="570.5" y1="461" x2="566.96446609407" y2="457.46446609407" style="stroke:#b0b;stroke-width:2;"/>
   <line x1="563" y1="173" x2="566.53553390593" y2="176.53553390593" style="stroke:#b0b;stroke-width:2;"/>
   <line x1="563" y1="173" x2="566.53553390593" y2="169.46446609407" style="stroke:#b0b;stroke-width:2;"/>
   <line x1="419" y1="81" x2="409" y2="81" style="stroke:#0b0;stroke-width:1;"/>
   <line x1="252" y1="45" x2="242" y2="45" style="stroke:#0b0;stroke-width:1;"/>
   <line x1="409" y1="81" x2="252" y2="45" style="stroke:#0b0;stroke-width:1;"/>
   <line x1="411.5" y1="81" x2="415.03553390593" y2="84.535533905933" style="stroke:#0b0;stroke-width:2;"/>
   <line x1="411.5" y1="81" x2="415.03553390593" y2="77.464466094067" style="stroke:#0b0;stroke-width:2;"/>
   <line x1="247" y1="45" x2="250.53553390593" y2="48.535533905933" style="stroke:#0b0;stroke-width:2;"/>
   <line x1="247" y1="45" x2="250.53553390593" y2="41.464466094067" style="stroke:#0b0;stroke-width:2;"/>
   <line x1="419" y1="61" x2="409" y2="61" style="stroke:#cb0;stroke-width:1;"/>
   <line x1="415" y1="173" x2="425" y2="173" style="stroke:#cb0;stroke-width:1;"/>
   <line x1="409" y1="61" x2="415" y2="173" style="stroke:#cb0;stroke-width:1;"/>
   <line x1="411.5" y1="61" x2="415.03553390593" y2="64.535533905933" style="stroke:#cb0;stroke-width:2;"/>
   <line x1="411.5" y1="61" x2="415.03553390593" y2="57.464466094067" style="stroke:#cb0;stroke-width:2;"/>
   <line x1="420" y1="173" x2="416.46446609407" y2="176.53553390593" style="stroke:#cb0;stroke-width:2;"/>
   <line x1="420" y1="173" x2="416.46446609407" y2="169.46446609407" style="stroke:#cb0;stroke-width:2;"/>
   <line x1="764" y1="185" x2="754" y2="185" style="stroke:#cb0;stroke-width:1;"/>
   <line x1="601" y1="41" x2="591" y2="41" style="stroke:#cb0;stroke-width:1;"/>
   <line x1="754" y1="185" x2="601" y2="41" style="stroke:#cb0;stroke-width:1;"/>
   <line x1="756.5" y1="185" x2="760.03553390593" y2="188.53553390593" style="stroke:#cb0;stroke-width:2;"/>
   <line x1="756.5" y1="185" x2="760.03553390593" y2="181.46446609407" style="stroke:#cb0;stroke-width:2;"/>
   <line x1="596" y1="41" x2="599.53553390593" y2="44.535533905933" style="stroke:#cb0;stroke-width:2;"/>
   <line x1="596" y1="41" x2="599.53553390593" y2="37.464466094067" style="stroke:#cb0;stroke-width:2;"/>
   <line x1="113" y1="276" x2="103" y2="276" style="stroke:#333;stroke-width:1;"/>
   <line x1="102" y1="45" x2="112" y2="45" style="stroke:#333;stroke-width:1;"/>
   <line x1="103" y1="276" x2="102" y2="45" style="stroke:#333;stroke-width:1;"/>
   <line x1="105.5" y1="276" x2="109.03553390593" y2="279.53553390593" style="stroke:#333;stroke-width:2;"/>
   <line x1="105.5" y1="276" x2="109.03553390593" y2="272.46446609407" style="stroke:#333;stroke-width:2;"/>
   <line x1="107" y1="45" x2="103.46446609407" y2="48.535533905933" style="stroke:#333;stroke-width:2;"/>
   <line x1="107" y1="45" x2="103.46446609407" y2="41.464466094067" style="stroke:#333;stroke-width:2;"/>
   <line x1="235" y1="256" x2="245" y2="256" style="stroke:#c00;stroke-width:1;"/>
   <line x1="415" y1="173" x2="425" y2="173" style="stroke:#c00;stroke-width:1;"/>
   <line x1="245" y1="256" x2="415" y2="173" style="stroke:#c00;stroke-width:1;"/>
   <line x1="242.5" y1="256" x2="238.96446609407" y2="259.53553390593" style="stroke:#c00;stroke-width:2;"/>
   <line x1="242.5" y1="256" x2="238.96446609407" y2="252.46446609407" style="stroke:#c00;stroke-width:2;"/>
   <line x1="420" y1="173" x2="416.46446609407" y2="176.53553390593" style="stroke:#c00;stroke-width:2;"/>
   <line x1="420" y1="173" x2="416.46446609407" y2="169.46446609407" style="stroke:#c00;stroke-width:2;"/>
   <line x1="425" y1="313" x2="415" y2="313" style="stroke:#bbb;stroke-width:1;"/>
   <line x1="261" y1="421" x2="251" y2="421" style="stroke:#bbb;stroke-width:1;"/>
   <line x1="415" y1="313" x2="261" y2="421" style="stroke:#bbb;stroke-width:1;"/>
   <line x1="417.5" y1="313" x2="421.03553390593" y2="316.53553390593" style="stroke:#bbb;stroke-width:2;"/>
   <line x1="417.5" y1="313" x2="421.03553390593" y2="309.46446609407" style="stroke:#bbb;stroke-width:2;"/>
   <line x1="256" y1="421" x2="259.53553390593" y2="424.53553390593" style="stroke:#bbb;stroke-width:2;"/>
   <line x1="256" y1="421" x2="259.53553390593" y2="417.46446609407" style="stroke:#bbb;stroke-width:2;"/>
   <rect width="134" height="20" x="117" y="391" style="fill:#007;stroke:black;"/>
   <text width="134" height="20" x="122" y="405" style="fill:#fff;" font-family="Arial" font-size="16px"> categorias</text>
   <rect width="134" height="20" x="117" y="411" style="fill:#aea;stroke:black;"/>
   <text width="134" height="20" x="122" y="425" style="fill:black;" font-family="Arial" font-size="16px">idCategoria</text>
   <rect width="134" height="20" x="117" y="431" style="fill:none;stroke:black;"/>
   <text width="134" height="20" x="122" y="445" style="fill:black;" font-family="Arial" font-size="16px">nombreCategoria</text>
   <rect width="119" height="20" x="444" y="391" style="fill:#007;stroke:black;"/>
   <text width="119" height="20" x="449" y="405" style="fill:#fff;" font-family="Arial" font-size="16px"> comentarios</text>
   <rect width="119" height="20" x="444" y="411" style="fill:#aea;stroke:black;"/>
   <text width="119" height="20" x="449" y="425" style="fill:black;" font-family="Arial" font-size="16px">idComentario</text>
   <rect width="119" height="20" x="444" y="431" style="fill:none;stroke:black;"/>
   <text width="119" height="20" x="449" y="445" style="fill:black;" font-family="Arial" font-size="16px">textComentario</text>
   <rect width="119" height="20" x="444" y="451" style="fill:none;stroke:black;"/>
   <text width="119" height="20" x="449" y="465" style="fill:black;" font-family="Arial" font-size="16px">idSitioComent</text>
   <rect width="172" height="20" x="419" y="11" style="fill:#007;stroke:black;"/>
   <text width="172" height="20" x="424" y="25" style="fill:#fff;" font-family="Arial" font-size="16px"> contenidos_multimedia</text>
   <rect width="172" height="20" x="419" y="31" style="fill:#aea;stroke:black;"/>
   <text width="172" height="20" x="424" y="45" style="fill:black;" font-family="Arial" font-size="16px">idContenido</text>
   <rect width="172" height="20" x="419" y="51" style="fill:none;stroke:black;"/>
   <text width="172" height="20" x="424" y="65" style="fill:black;" font-family="Arial" font-size="16px">idSitiosc</text>
   <rect width="172" height="20" x="419" y="71" style="fill:none;stroke:black;"/>
   <text width="172" height="20" x="424" y="85" style="fill:black;" font-family="Arial" font-size="16px">correoCuentasc</text>
   <rect width="130" height="20" x="112" y="15" style="fill:#007;stroke:black;"/>
   <text width="130" height="20" x="117" y="29" style="fill:#fff;" font-family="Arial" font-size="16px"> cuentas</text>
   <rect width="130" height="20" x="112" y="35" style="fill:#aea;stroke:black;"/>
   <text width="130" height="20" x="117" y="49" style="fill:black;" font-family="Arial" font-size="16px">correoCuenta</text>
   <rect width="130" height="20" x="112" y="55" style="fill:none;stroke:black;"/>
   <text width="130" height="20" x="117" y="69" style="fill:black;" font-family="Arial" font-size="16px">passwordCuenta</text>
   <rect width="130" height="20" x="112" y="75" style="fill:none;stroke:black;"/>
   <text width="130" height="20" x="117" y="89" style="fill:black;" font-family="Arial" font-size="16px">nombreCuenta</text>
   <rect width="130" height="20" x="112" y="95" style="fill:none;stroke:black;"/>
   <text width="130" height="20" x="117" y="109" style="fill:black;" font-family="Arial" font-size="16px">apellidoCuenta</text>
   <rect width="130" height="20" x="112" y="115" style="fill:none;stroke:black;"/>
   <text width="130" height="20" x="117" y="129" style="fill:black;" font-family="Arial" font-size="16px">celularCuenta</text>
   <rect width="178" height="20" x="764" y="55" style="fill:#007;stroke:black;"/>
   <text width="178" height="20" x="769" y="69" style="fill:#fff;" font-family="Arial" font-size="16px"> imagenes</text>
   <rect width="178" height="20" x="764" y="75" style="fill:#aea;stroke:black;"/>
   <text width="178" height="20" x="769" y="89" style="fill:black;" font-family="Arial" font-size="16px">idImagen</text>
   <rect width="178" height="20" x="764" y="95" style="fill:none;stroke:black;"/>
   <text width="178" height="20" x="769" y="109" style="fill:black;" font-family="Arial" font-size="16px">nombreImagen</text>
   <rect width="178" height="20" x="764" y="115" style="fill:none;stroke:black;"/>
   <text width="178" height="20" x="769" y="129" style="fill:black;" font-family="Arial" font-size="16px">descripcionImagen</text>
   <rect width="178" height="20" x="764" y="135" style="fill:none;stroke:black;"/>
   <text width="178" height="20" x="769" y="149" style="fill:black;" font-family="Arial" font-size="16px">fechaImagen</text>
   <rect width="178" height="20" x="764" y="155" style="fill:none;stroke:black;"/>
   <text width="178" height="20" x="769" y="169" style="fill:black;" font-family="Arial" font-size="16px">imagen</text>
   <rect width="178" height="20" x="764" y="175" style="fill:none;stroke:black;"/>
   <text width="178" height="20" x="769" y="189" style="fill:black;" font-family="Arial" font-size="16px">idContenidoMultimediaI</text>
   <rect width="122" height="20" x="113" y="186" style="fill:#007;stroke:black;"/>
   <text width="122" height="20" x="118" y="200" style="fill:#fff;" font-family="Arial" font-size="16px"> registros_visitas</text>
   <rect width="122" height="20" x="113" y="206" style="fill:#aea;stroke:black;"/>
   <text width="122" height="20" x="118" y="220" style="fill:black;" font-family="Arial" font-size="16px">codigoVisita</text>
   <rect width="122" height="20" x="113" y="226" style="fill:none;stroke:black;"/>
   <text width="122" height="20" x="118" y="240" style="fill:black;" font-family="Arial" font-size="16px">fechaVisita</text>
   <rect width="122" height="20" x="113" y="246" style="fill:none;stroke:black;"/>
   <text width="122" height="20" x="118" y="260" style="fill:black;" font-family="Arial" font-size="16px">idSitios</text>
   <rect width="122" height="20" x="113" y="266" style="fill:none;stroke:black;"/>
   <text width="122" height="20" x="118" y="280" style="fill:black;" font-family="Arial" font-size="16px">correoCuentas</text>
   <rect width="133" height="20" x="425" y="143" style="fill:#007;stroke:black;"/>
   <text width="133" height="20" x="430" y="157" style="fill:#fff;" font-family="Arial" font-size="16px"> sitios_interes</text>
   <rect width="133" height="20" x="425" y="163" style="fill:#aea;stroke:black;"/>
   <text width="133" height="20" x="430" y="177" style="fill:black;" font-family="Arial" font-size="16px">idSitio</text>
   <rect width="133" height="20" x="425" y="183" style="fill:none;stroke:black;"/>
   <text width="133" height="20" x="430" y="197" style="fill:black;" font-family="Arial" font-size="16px">nombreSitio</text>
   <rect width="133" height="20" x="425" y="203" style="fill:none;stroke:black;"/>
   <text width="133" height="20" x="430" y="217" style="fill:black;" font-family="Arial" font-size="16px">direccionSitio</text>
   <rect width="133" height="20" x="425" y="223" style="fill:none;stroke:black;"/>
   <text width="133" height="20" x="430" y="237" style="fill:black;" font-family="Arial" font-size="16px">calificacionSitio</text>
   <rect width="133" height="20" x="425" y="243" style="fill:none;stroke:black;"/>
   <text width="133" height="20" x="430" y="257" style="fill:black;" font-family="Arial" font-size="16px">reseñaSitio</text>
   <rect width="133" height="20" x="425" y="263" style="fill:none;stroke:black;"/>
   <text width="133" height="20" x="430" y="277" style="fill:black;" font-family="Arial" font-size="16px">horarioSitio</text>
   <rect width="133" height="20" x="425" y="283" style="fill:none;stroke:black;"/>
   <text width="133" height="20" x="430" y="297" style="fill:black;" font-family="Arial" font-size="16px">infoAdicionalSitio</text>
   <rect width="133" height="20" x="425" y="303" style="fill:none;stroke:black;"/>
   <text width="133" height="20" x="430" y="317" style="fill:black;" font-family="Arial" font-size="16px">idCategoriaS</text>
</svg>